<svg xmlns="http://www.w3.org/2000/svg" width="33" height="40" viewBox="0 0 33 40" fill="none">
  <path d="M0.142857 34.8004C0.142857 38.1452 1.86175 39.8796 5.17564 39.8796H19.6701C22.984 39.8796 24.6874 38.1297 24.6874 34.8004V31.9355H27.3199C30.6338 31.9355 32.3527 30.2012 32.3527 26.8563V14.5918C32.3527 12.5632 31.9346 11.2624 30.7112 10.0081L22.984 2.14146C21.8225 0.949079 20.4443 0.5 18.6635 0.5H12.8255C9.52706 0.5 7.79269 2.23438 7.79269 5.57924V8.42857H5.17564C1.86175 8.42857 0.142857 10.1784 0.142857 13.5078V34.8004ZM23.1388 18.5251L14.7457 9.99261C13.5533 8.78474 12.5467 8.45954 10.8278 8.44406V5.74958C10.8278 4.32492 11.5866 3.53516 13.0887 3.53516H19.5617V10.9372C19.5617 12.8574 20.5837 13.8485 22.4884 13.8485H29.3175V26.6705C29.3175 28.1106 28.5742 28.9004 27.0566 28.9004H24.6874V22.892C24.6874 20.8015 24.4396 19.8414 23.1388 18.5251ZM22.1013 10.5501V4.78948L28.5278 11.3089H22.8601C22.3336 11.3089 22.1013 11.0921 22.1013 10.5501ZM3.17801 34.6145V13.6936C3.17801 12.269 3.92132 11.4637 5.42341 11.4637H10.1775V19.9498C10.1775 22.1642 11.2769 23.2482 13.4759 23.2482H21.6522V34.6145C21.6522 36.0547 20.9089 36.8444 19.4068 36.8444H5.42341C3.92132 36.8444 3.17801 36.0547 3.17801 34.6145ZM13.7701 20.5692C13.1352 20.5692 12.8564 20.2905 12.8564 19.6556V12.0522L21.2341 20.5692H13.7701Z" fill="white"/>
</svg>